<svg width="24" height="24" viewBox="0 0 24 24" fill="none" xmlns="http://www.w3.org/2000/svg">
<path d="M5 2C3.346 2 2 3.346 2 5V7H4V20H9V18H6V7H17V5C17 4.449 17.448 4 18 4C18.565 4 19 4.43497 19 5V20H21V5C21 3.35503 19.645 2 18 2H5ZM8 10V12H17V10H8ZM8 14V16H10V14H8ZM14 14C12.355 14 11 15.355 11 17C11 17.8764 11.3918 18.6622 12 19.2129V22.8047L14 21.5547L16 22.8047V19.2129C16.6082 18.6622 17 17.8764 17 17C17 15.355 15.645 14 14 14ZM14 16C14.5641 16 15 16.4359 15 17C15 17.5641 14.5641 18 14 18C13.4359 18 13 17.5641 13 17C13 16.4359 13.4359 16 14 16Z" fill="#1177D8"/>
</svg>
