<svg width="22" height="22" viewBox="0 0 22 22" fill="none" xmlns="http://www.w3.org/2000/svg">
<path d="M11 0C10.7469 0 10.5417 0.205205 10.5417 0.458333C10.5417 0.711462 10.7469 0.916667 11 0.916667C11.2531 0.916667 11.4583 0.711462 11.4583 0.458333C11.4583 0.205205 11.2531 0 11 0ZM8.27149 0.358967C8.01836 0.358967 7.81315 0.564172 7.81315 0.8173C7.81315 1.07043 8.01836 1.27563 8.27149 1.27563C8.52462 1.27563 8.72982 1.07043 8.72982 0.8173C8.72982 0.564172 8.52462 0.358967 8.27149 0.358967ZM13.7285 0.358967C13.4754 0.358967 13.2702 0.564172 13.2702 0.8173C13.2702 1.07043 13.4754 1.27563 13.7285 1.27563C13.9816 1.27563 14.1869 1.07043 14.1869 0.8173C14.1869 0.564172 13.9816 0.358967 13.7285 0.358967ZM5.72917 1.4117C5.47604 1.4117 5.27083 1.61691 5.27083 1.87004C5.27083 2.12317 5.47604 2.32837 5.72917 2.32837C5.9823 2.32837 6.1875 2.12317 6.1875 1.87004C6.1875 1.61691 5.9823 1.4117 5.72917 1.4117ZM16.2708 1.4117C16.0177 1.4117 15.8125 1.61691 15.8125 1.87004C15.8125 2.12317 16.0177 2.32837 16.2708 2.32837C16.524 2.32837 16.7292 2.12317 16.7292 1.87004C16.7292 1.61691 16.524 1.4117 16.2708 1.4117ZM11 1.83333C5.94282 1.83333 1.83333 5.94282 1.83333 11C1.83333 16.0572 5.94282 20.1667 11 20.1667C16.0572 20.1667 20.1667 16.0572 20.1667 11C20.1667 5.94282 16.0572 1.83333 11 1.83333ZM3.54582 3.08748C3.29269 3.08748 3.08748 3.29269 3.08748 3.54582C3.08748 3.79895 3.29269 4.00415 3.54582 4.00415C3.79895 4.00415 4.00415 3.79895 4.00415 3.54582C4.00415 3.29269 3.79895 3.08748 3.54582 3.08748ZM18.4542 3.08748C18.2011 3.08748 17.9958 3.29269 17.9958 3.54582C17.9958 3.79895 18.2011 4.00415 18.4542 4.00415C18.7073 4.00415 18.9125 3.79895 18.9125 3.54582C18.9125 3.29269 18.7073 3.08748 18.4542 3.08748ZM8.52572 3.12777C8.10972 3.95826 7.79167 5.03608 7.79167 5.32813C7.79167 5.82313 8.17896 5.95833 8.88021 5.95833C9.61263 5.95833 9.625 6.52208 9.625 6.64583V8.25C9.625 8.99479 9.10938 9.16667 8.70833 9.16667C7.38833 9.16667 7.33333 10.0467 7.33333 10.5417C7.33333 10.7135 7.30354 11 6.93229 11C6.24479 11 6.74896 10.5417 6.13021 10.5417H5.84375C5.5 10.5417 5.5 10.808 5.5 11C5.5 11.4583 5.95833 12.8333 7.33333 12.8333H7.67708H8.36458C8.65333 12.8333 8.95125 12.8746 9.22396 13.1198C9.79688 13.6354 9.87479 13.75 10.3698 13.75C10.8281 13.75 11 14.2152 11 14.3802C11 15.2396 10.5327 15.7191 10.2651 15.9226C10.134 16.0225 10.0399 16.1598 9.98128 16.3138C9.77341 16.858 9.33099 18.0374 9.15413 19.0361C8.51501 18.8902 7.90609 18.6689 7.33333 18.3844V17.6458C7.33333 16.8208 6.41666 15.7254 6.41666 14.3229C6.41666 13.4979 5.25708 12.7371 4.92708 12.4896C4.46783 12.1449 4.0714 11.7487 3.74186 11.1441C3.69098 11.0511 3.62554 10.9641 3.54671 10.8935L3.41154 10.7735C3.24379 10.6246 3.02693 10.5417 2.80281 10.5417H2.77327C2.96525 7.04571 5.316 4.13319 8.52572 3.12777ZM15.7722 4.27539C17.8751 5.76946 19.25 8.21964 19.25 11C19.25 13.7567 17.8976 16.1877 15.825 17.6852C15.6189 17.2371 15.329 16.609 15.2074 16.321C15.0534 15.9566 14.9452 15.7009 14.8627 15.5153C14.7623 15.2907 14.5777 15.1175 14.3453 15.0355C13.8269 14.8531 12.8333 14.3605 12.8333 13.2917C12.8333 12.8379 13.0052 11.9167 14.6667 11.9167C15.9042 11.9167 16.9583 10.9542 16.9583 10.5417C16.9583 9.80009 16.695 9.23167 16.5304 8.94109C16.425 8.75546 16.2022 8.67232 15.9996 8.73878C15.7897 8.80798 15.5081 8.92375 15.2405 9.10938C14.4952 9.625 14.5704 10.5417 13.2917 10.5417C13.1267 10.5417 12.8333 9.68459 12.8333 9.39584C12.8333 9.16667 13.1863 9.07638 13.5208 8.9375C13.7573 8.83942 13.75 8.70834 13.75 8.47917C13.75 8.32059 13.436 8.096 13.349 7.96355C13.315 7.91175 13.2926 7.85171 13.2917 7.79167C13.2903 7.68717 13.3429 7.58108 13.4313 7.51416L14.3802 6.9323C14.7384 6.70844 15.4646 5.0201 15.7722 4.27539ZM1.87004 5.27083C1.61691 5.27083 1.4117 5.47604 1.4117 5.72917C1.4117 5.9823 1.61691 6.1875 1.87004 6.1875C2.12317 6.1875 2.32837 5.9823 2.32837 5.72917C2.32837 5.47604 2.12317 5.27083 1.87004 5.27083ZM20.13 5.27083C19.8768 5.27083 19.6716 5.47604 19.6716 5.72917C19.6716 5.9823 19.8768 6.1875 20.13 6.1875C20.3831 6.1875 20.5883 5.9823 20.5883 5.72917C20.5883 5.47604 20.3831 5.27083 20.13 5.27083ZM0.8173 7.81315C0.564172 7.81315 0.358967 8.01836 0.358967 8.27149C0.358967 8.52462 0.564172 8.72982 0.8173 8.72982C1.07043 8.72982 1.27563 8.52462 1.27563 8.27149C1.27563 8.01836 1.07043 7.81315 0.8173 7.81315ZM21.1827 7.81315C20.9296 7.81315 20.7244 8.01836 20.7244 8.27149C20.7244 8.52462 20.9296 8.72982 21.1827 8.72982C21.4358 8.72982 21.641 8.52462 21.641 8.27149C21.641 8.01836 21.4358 7.81315 21.1827 7.81315ZM0.458333 10.5417C0.205205 10.5417 0 10.7469 0 11C0 11.2531 0.205205 11.4583 0.458333 11.4583C0.711462 11.4583 0.916667 11.2531 0.916667 11C0.916667 10.7469 0.711462 10.5417 0.458333 10.5417ZM21.5417 10.5417C21.2885 10.5417 21.0833 10.7469 21.0833 11C21.0833 11.2531 21.2885 11.4583 21.5417 11.4583C21.7948 11.4583 22 11.2531 22 11C22 10.7469 21.7948 10.5417 21.5417 10.5417ZM0.8173 13.2702C0.564172 13.2702 0.358967 13.4754 0.358967 13.7285C0.358967 13.9816 0.564172 14.1869 0.8173 14.1869C1.07043 14.1869 1.27563 13.9816 1.27563 13.7285C1.27563 13.4754 1.07043 13.2702 0.8173 13.2702ZM21.1827 13.2702C20.9296 13.2702 20.7244 13.4754 20.7244 13.7285C20.7244 13.9816 20.9296 14.1869 21.1827 14.1869C21.4358 14.1869 21.641 13.9816 21.641 13.7285C21.641 13.4754 21.4358 13.2702 21.1827 13.2702ZM1.87004 15.8125C1.61691 15.8125 1.4117 16.0177 1.4117 16.2708C1.4117 16.524 1.61691 16.7292 1.87004 16.7292C2.12317 16.7292 2.32837 16.524 2.32837 16.2708C2.32837 16.0177 2.12317 15.8125 1.87004 15.8125ZM20.13 15.8125C19.8768 15.8125 19.6716 16.0177 19.6716 16.2708C19.6716 16.524 19.8768 16.7292 20.13 16.7292C20.3831 16.7292 20.5883 16.524 20.5883 16.2708C20.5883 16.0177 20.3831 15.8125 20.13 15.8125ZM3.54582 17.9958C3.29269 17.9958 3.08748 18.2011 3.08748 18.4542C3.08748 18.7073 3.29269 18.9125 3.54582 18.9125C3.79895 18.9125 4.00415 18.7073 4.00415 18.4542C4.00415 18.2011 3.79895 17.9958 3.54582 17.9958ZM18.4542 17.9958C18.2011 17.9958 17.9958 18.2011 17.9958 18.4542C17.9958 18.7073 18.2011 18.9125 18.4542 18.9125C18.7073 18.9125 18.9125 18.7073 18.9125 18.4542C18.9125 18.2011 18.7073 17.9958 18.4542 17.9958ZM5.72917 19.6716C5.47604 19.6716 5.27083 19.8768 5.27083 20.13C5.27083 20.3831 5.47604 20.5883 5.72917 20.5883C5.9823 20.5883 6.1875 20.3831 6.1875 20.13C6.1875 19.8768 5.9823 19.6716 5.72917 19.6716ZM16.2708 19.6716C16.0177 19.6716 15.8125 19.8768 15.8125 20.13C15.8125 20.3831 16.0177 20.5883 16.2708 20.5883C16.524 20.5883 16.7292 20.3831 16.7292 20.13C16.7292 19.8768 16.524 19.6716 16.2708 19.6716ZM8.27149 20.7244C8.01836 20.7244 7.81315 20.9296 7.81315 21.1827C7.81315 21.4358 8.01836 21.641 8.27149 21.641C8.52462 21.641 8.72982 21.4358 8.72982 21.1827C8.72982 20.9296 8.52462 20.7244 8.27149 20.7244ZM13.7285 20.7244C13.4754 20.7244 13.2702 20.9296 13.2702 21.1827C13.2702 21.4358 13.4754 21.641 13.7285 21.641C13.9816 21.641 14.1869 21.4358 14.1869 21.1827C14.1869 20.9296 13.9816 20.7244 13.7285 20.7244ZM11 21.0833C10.7469 21.0833 10.5417 21.2885 10.5417 21.5417C10.5417 21.7948 10.7469 22 11 22C11.2531 22 11.4583 21.7948 11.4583 21.5417C11.4583 21.2885 11.2531 21.0833 11 21.0833Z" fill="#1177D8"/>
</svg>
