<svg width="22" height="22" viewBox="0 0 22 22" fill="none" xmlns="http://www.w3.org/2000/svg">
<g clip-path="url(#clip0_63_653)">
<path d="M11.0352 0.880005C5.45133 0.880005 0.915237 5.4161 0.915237 11C0.915237 16.5839 5.45132 21.12 11.0352 21.12C16.6191 21.12 21.1552 16.5839 21.1552 11C21.1552 5.4161 16.6191 0.880005 11.0352 0.880005ZM11.0352 1.76C16.1436 1.76 20.2752 5.89168 20.2752 11C20.2752 16.1083 16.1436 20.24 11.0352 20.24C5.92692 20.24 1.79524 16.1083 1.79524 11C1.79524 5.89168 5.92692 1.76 11.0352 1.76ZM10.5952 2.69844C9.45476 2.97916 8.44553 4.3301 7.80313 6.24938C8.68885 6.43066 9.62944 6.53711 10.5952 6.56219V2.69844ZM11.4752 2.69844V6.56219C12.4507 6.53755 13.3917 6.43401 14.2699 6.25625C13.6275 4.33345 12.6166 2.97916 11.4752 2.69844ZM8.57914 3.00953C7.1685 3.44381 5.92225 4.24687 4.93797 5.29891C5.53681 5.59679 6.20918 5.84557 6.9343 6.04313C7.34482 4.79045 7.9077 3.75137 8.57914 3.00953ZM13.4913 3.00953C14.1641 3.75269 14.7282 4.7951 15.1388 6.05086C15.8705 5.85154 16.5425 5.59905 17.1308 5.29633C16.1469 4.24517 14.9006 3.44337 13.4913 3.00953ZM17.7066 5.98383C17.0263 6.35299 16.2426 6.65851 15.382 6.89391C15.664 8.00227 15.8328 9.24 15.8641 10.56H19.3729C19.2831 8.84752 18.6781 7.27259 17.7066 5.98383ZM4.35961 5.98899C3.39029 7.27687 2.78734 8.84972 2.69758 10.56H6.20641C6.23765 9.23736 6.40688 7.99715 6.69024 6.88703C5.83752 6.65383 5.05173 6.35199 4.35961 5.98899ZM7.55133 7.09415C7.28073 8.14355 7.11853 9.32184 7.08641 10.56H10.5952V7.44219C9.54452 7.41579 8.51757 7.29699 7.55133 7.09415ZM14.52 7.10102C13.5617 7.30034 12.5356 7.41667 11.4752 7.44219V10.56H14.9841C14.9519 9.32448 14.7897 8.14866 14.52 7.10102ZM2.69758 11.44C2.78734 13.1525 3.39239 14.7274 4.36391 16.0162C5.04415 15.647 5.82788 15.3415 6.68852 15.1061C6.40648 13.9977 6.23765 12.76 6.20641 11.44H2.69758ZM7.08641 11.44C7.11853 12.6755 7.28075 13.8513 7.55047 14.899C8.50879 14.6997 9.53484 14.5833 10.5952 14.5578V11.44H7.08641ZM11.4752 11.44V14.5578C12.526 14.5842 13.552 14.703 14.5183 14.9059C14.7889 13.8565 14.9519 12.6782 14.9841 11.44L11.4752 11.44ZM15.8641 11.44C15.8328 12.7626 15.6636 14.0029 15.3802 15.113C16.233 15.3462 17.0187 15.648 17.7109 16.011C18.6802 14.7231 19.2831 13.1503 19.3729 11.44L15.8641 11.44ZM10.5952 15.4378C9.61976 15.4625 8.67879 15.566 7.80055 15.7438C8.44295 17.6666 9.45388 19.0208 10.5952 19.3016V15.4378ZM11.4752 15.4378V19.3016C12.6157 19.0208 13.6249 17.6699 14.2673 15.7506C13.3816 15.5694 12.441 15.4629 11.4752 15.4378ZM6.93172 15.9491C6.2 16.1485 5.52797 16.401 4.93969 16.7037C5.92353 17.7548 7.16983 18.5566 8.57915 18.9905C7.90639 18.2473 7.34224 17.2049 6.93172 15.9491ZM15.1362 15.9569C14.7257 17.2096 14.1619 18.2486 13.4905 18.9905C14.9011 18.5562 16.1482 17.7531 17.1325 16.7011C16.5337 16.4032 15.8613 16.1544 15.1362 15.9569Z" fill="#1177D8"/>
</g>
<defs>
<clipPath id="clip0_63_653">
<rect width="22" height="22" fill="white"/>
</clipPath>
</defs>
</svg>
