<svg width="22" height="22" viewBox="0 0 22 22" fill="none" xmlns="http://www.w3.org/2000/svg">
<path d="M15.0526 0.00798053C14.6041 0.0369562 14.1625 0.160594 13.7467 0.394348L11.3272 1.72345H4.44017L0.522373 0.687987C0.390062 0.63776 0.269778 0.682191 0.137467 0.780715C0.0498311 0.830941 0 0.987422 0 1.13617V11.9081C0 12.1554 0.182142 12.3524 0.357413 12.4026L1.81456 12.6808C1.67881 13.2932 1.81628 13.9655 2.24071 14.4427C2.58094 14.8252 3.03286 15.0048 3.4779 14.9836C3.459 15.4839 3.61881 15.992 3.95904 16.3745C4.29927 16.757 4.75119 16.9367 5.19624 16.9154C5.18249 17.4119 5.34058 17.9122 5.67737 18.2909C6.00557 18.6599 6.44031 18.8395 6.87333 18.8318C6.86302 19.3205 7.01767 19.8132 7.34072 20.1763L7.35446 20.1918C7.84934 20.7346 8.58307 20.8583 9.18277 20.5627L9.89759 21.3664C10.2499 21.7624 10.7327 22 11.2173 22C11.7018 22 12.1847 21.8107 12.537 21.3664C12.8892 20.9703 13.0696 20.4738 13.1143 19.9291C13.7295 20.0778 14.4306 19.8827 14.9151 19.3882C15.2674 18.9921 15.4341 18.4956 15.4787 17.9509C16.0939 18.0996 16.8087 17.9045 17.2933 17.41C17.6885 16.9656 17.8603 16.3185 17.8157 15.7254C18.3879 15.7756 18.9188 15.567 19.3141 15.1227C19.7935 14.5837 19.9601 13.7684 19.7952 13.0517L20.0014 12.8199L21.6235 12.5572C21.8658 12.5147 22.0325 12.2578 21.9947 11.9854C21.9568 11.713 21.7283 11.5256 21.486 11.5681L19.7265 11.8772L19.589 11.8926L19.0116 12.5417L13.6779 6.52986C13.8291 6.36565 13.8549 6.10486 13.7415 5.90587C13.6281 5.7069 13.4064 5.62576 13.2105 5.71076L10.3512 6.94714C8.84769 7.61555 7.15514 7.18089 6.08977 5.84985L6.07602 5.8344C6.01932 5.77065 6.01588 5.72621 6.08977 5.69531H6.11726L6.13101 5.67985L14.1316 1.27526H14.1453C14.9564 0.819354 15.9032 0.912082 16.6472 1.47618L16.8122 1.69254L16.8534 1.75436L16.9084 1.78527C17.7074 2.40346 18.6697 2.56766 19.5752 2.29527V2.31073L19.6027 2.29527L21.651 1.81618C21.8898 1.75629 22.041 1.4897 21.9878 1.22118C21.9345 0.95265 21.6974 0.782649 21.4585 0.842539L19.3965 1.33709L19.3828 1.35254H19.369C18.7126 1.55732 18.0356 1.42209 17.4445 0.981631L17.2796 0.765265L17.2383 0.718901L17.1833 0.672537C16.6781 0.274578 16.1008 0.058212 15.5062 0.00798548C15.3567 -0.00360677 15.2021 -0.00167803 15.0526 0.00798053ZM3.84906 11.7381C4.04152 11.7381 4.23741 11.8347 4.39893 12.0163C4.72198 12.3795 4.72198 12.8895 4.39893 13.2526L4.05526 13.6236L4.01402 13.6699L3.95904 13.7472C3.63599 14.1104 3.18235 14.1104 2.8593 13.7472C2.53626 13.384 2.53626 12.874 2.8593 12.5108L3.24421 12.0935L3.2992 12.0163C3.46072 11.8347 3.65661 11.7381 3.84906 11.7381ZM5.5674 13.6699C5.75985 13.6699 5.95574 13.7665 6.11726 13.9481C6.44031 14.3113 6.44031 14.8058 6.11726 15.169L5.67737 15.6636C5.35433 16.0268 4.90069 16.0268 4.57764 15.6636C4.25459 15.3004 4.25459 14.8058 4.57764 14.4427L5.01753 13.9481C5.17905 13.7665 5.37494 13.6699 5.5674 13.6699ZM7.28573 15.6018C7.47818 15.6018 7.66032 15.6984 7.82185 15.8799C8.08819 16.1794 8.13287 16.5696 7.95931 16.9C7.89917 16.9502 7.83559 16.9927 7.78061 17.0545L7.34072 17.5491V17.5645H7.32697C7.27886 17.6244 7.24277 17.6862 7.20325 17.75C6.90941 17.9451 6.56231 17.8948 6.29597 17.5954C5.97292 17.2322 5.97292 16.7377 6.29597 16.3745L6.62589 15.9881L6.70837 15.9109L6.73586 15.8799C6.89739 15.6984 7.09328 15.6018 7.28573 15.6018ZM8.94907 17.4872C9.14153 17.4872 9.33742 17.5684 9.49894 17.75C9.82199 18.1131 9.82199 18.6232 9.49894 18.9863L9.05905 19.4809C8.736 19.8441 8.28236 19.8441 7.95931 19.4809C7.75139 19.2471 7.70328 18.7796 7.84934 18.43C7.90433 18.3817 7.96447 18.3469 8.0143 18.2909L8.45419 17.7963C8.51262 17.7306 8.5573 17.6534 8.60541 17.58C8.71538 17.5181 8.83395 17.4872 8.94907 17.4872Z" fill="#1177D8"/>
</svg>
