<svg width="25" height="34" viewBox="0 0 25 34" fill="none" xmlns="http://www.w3.org/2000/svg">
<path d="M11.2154 32.7209C1.75586 19.0074 0 17.6 0 12.5601C0 5.65648 5.59642 0.0600586 12.5 0.0600586C19.4036 0.0600586 25 5.65648 25 12.5601C25 17.6 23.2441 19.0074 13.7846 32.7209C13.1639 33.6176 11.8361 33.6175 11.2154 32.7209ZM12.5 17.7684C15.3765 17.7684 17.7083 15.4366 17.7083 12.5601C17.7083 9.68356 15.3765 7.35172 12.5 7.35172C9.6235 7.35172 7.29167 9.68356 7.29167 12.5601C7.29167 15.4366 9.6235 17.7684 12.5 17.7684Z" fill="#F9F9FB"/>
</svg>
