<svg width="25" height="26" viewBox="0 0 25 26" fill="none" xmlns="http://www.w3.org/2000/svg">
<path d="M24.2866 17.7256L18.8179 15.3819C18.5843 15.2823 18.3246 15.2613 18.078 15.3221C17.8315 15.3829 17.6113 15.5221 17.4507 15.7188L15.0288 18.6778C11.2279 16.8857 8.16904 13.8268 6.37695 10.0259L9.33594 7.60405C9.53305 7.44374 9.67256 7.22357 9.73335 6.97688C9.79414 6.73019 9.7729 6.4704 9.67285 6.23686L7.3291 0.768112C7.21929 0.516358 7.02508 0.31081 6.77996 0.18691C6.53483 0.0630103 6.25416 0.0285252 5.98633 0.089401L0.908203 1.26128C0.649985 1.3209 0.419602 1.46629 0.254656 1.67372C0.0897096 1.88114 -5.94829e-05 2.13835 2.95713e-08 2.40337C2.95713e-08 14.9278 10.1514 25.0596 22.6562 25.0596C22.9213 25.0598 23.1787 24.9701 23.3862 24.8051C23.5937 24.6402 23.7392 24.4097 23.7988 24.1514L24.9707 19.0733C25.0312 18.8042 24.996 18.5224 24.8711 18.2764C24.7463 18.0304 24.5396 17.8357 24.2866 17.7256Z" fill="#F9F9FB"/>
</svg>
