<svg width="25" height="19" viewBox="0 0 25 19" fill="none" xmlns="http://www.w3.org/2000/svg">
<path d="M24.5264 6.25098C24.7168 6.09961 25 6.24121 25 6.48047V16.4658C25 17.7598 23.9502 18.8096 22.6562 18.8096H2.34375C1.0498 18.8096 0 17.7598 0 16.4658V6.48535C0 6.24121 0.27832 6.10449 0.473633 6.25586C1.56738 7.10547 3.01758 8.18457 7.99805 11.8027C9.02832 12.5547 10.7666 14.1367 12.5 14.127C14.2432 14.1416 16.0156 12.5254 17.0068 11.8027C21.9873 8.18457 23.4326 7.10059 24.5264 6.25098ZM12.5 12.5596C13.6328 12.5791 15.2637 11.1338 16.084 10.5381C22.5635 5.83594 23.0566 5.42578 24.5508 4.25391C24.834 4.03418 25 3.69238 25 3.33105V2.40332C25 1.10938 23.9502 0.0595703 22.6562 0.0595703H2.34375C1.0498 0.0595703 0 1.10938 0 2.40332V3.33105C0 3.69238 0.166016 4.0293 0.449219 4.25391C1.94336 5.4209 2.43652 5.83594 8.91602 10.5381C9.73633 11.1338 11.3672 12.5791 12.5 12.5596Z" fill="#F9F9FB"/>
</svg>
