<svg width="22" height="18" viewBox="0 0 22 18" fill="none" xmlns="http://www.w3.org/2000/svg">
<path d="M1.63647 1.88737e-05C1.20379 -0.00206274 0.788058 0.16812 0.481035 0.473011C0.174012 0.777901 0.000934753 1.19243 0 1.62512V12.2332H13.1704V1.62512C13.172 1.19359 13.0012 0.779291 12.696 0.474179C12.3909 0.169066 11.9765 -0.00161583 11.545 1.88737e-05H1.63647ZM6.58491 1.4941C6.64828 1.49237 6.71087 1.50835 6.76565 1.54025L10.4736 3.67616C10.5825 3.73691 10.6513 3.85056 10.6546 3.97521L10.6547 8.24694C10.6508 8.3717 10.5816 8.48524 10.4725 8.54589L6.76796 10.6818C6.71464 10.7121 6.65435 10.728 6.59301 10.728C6.53203 10.7281 6.47211 10.7121 6.4192 10.6818L2.72861 8.54589C2.62404 8.48315 2.56148 8.36884 2.56502 8.24694V3.97521C2.56122 3.85334 2.62361 3.73895 2.72813 3.67616L6.42267 1.54025C6.47203 1.51151 6.52782 1.49564 6.58491 1.4941ZM6.59069 2.23777L3.58192 3.97482L4.70469 4.62301L7.71337 2.88596L6.59069 2.23777ZM8.40396 3.28472L5.39528 5.02177L6.59069 5.71197L9.59937 3.97482L8.40396 3.28472ZM3.25561 4.57272V8.04751L6.26457 9.78475V6.31007L3.25561 4.57272ZM9.96413 4.57272L6.95516 6.31007V9.78475L9.96413 8.04751V4.57272ZM14.9955 7.20181V10.852H17.0673V7.20181H14.9955ZM17.7578 7.20181V10.852H19.7743L19.3738 8.56178C19.355 8.44328 19.3236 8.32714 19.2801 8.21534C19.0304 7.6037 18.4361 7.20337 17.7755 7.20181H17.7578ZM14.9955 11.5426V15.2422H15.677C15.8264 14.0123 16.8704 13.0874 18.1094 13.0874C19.3484 13.0874 20.3924 14.0123 20.5418 15.2422H22V13.6331C22 12.5312 21.0848 11.5426 20.3635 11.5426H14.9955ZM0 12.9238V15.2422H1.90402C1.95974 14.7217 2.18506 14.2341 2.54527 13.8544C2.54695 13.8525 2.54875 13.8452 2.55047 13.8434C2.55408 13.8395 2.55762 13.833 2.56107 13.8295C3.02306 13.3426 3.66468 13.0666 4.3359 13.0662C5.00712 13.0658 5.64909 13.3409 6.11168 13.8273C6.11513 13.8308 6.11858 13.8342 6.12199 13.8378C6.12371 13.8396 6.12571 13.8525 6.12738 13.8545C6.48758 14.2342 6.71291 14.7218 6.76864 15.2422H14.3049V12.9238H0ZM18.0673 13.7466C17.1082 13.7695 16.344 14.5563 16.3491 15.5157C16.3491 15.5287 16.3491 15.542 16.3494 15.5551C16.3764 16.5093 17.1548 17.2704 18.1094 17.2759C19.0632 17.2707 19.8415 16.5107 19.8693 15.5572C19.8697 15.542 19.8697 15.5287 19.8697 15.5157C19.8722 15.0399 19.682 14.5834 19.3425 14.2501C19.0029 13.9168 18.5429 13.7352 18.0673 13.7466ZM4.35747 13.7555C3.86753 13.7496 3.39736 13.9484 3.06022 14.304L3.05367 14.3106L3.04991 14.3146C2.745 14.6401 2.5756 15.0696 2.5762 15.5156C2.5763 15.5287 2.57624 15.5421 2.57658 15.5551C2.59782 16.5115 3.37889 17.2758 4.33548 17.2764C5.29208 17.277 6.07407 16.5135 6.09646 15.5572C6.0969 15.542 6.09684 15.5287 6.09684 15.5157C6.09738 15.0696 5.92791 14.6402 5.62293 14.3147L5.61802 14.3095C5.6158 14.3073 5.61479 14.3063 5.61262 14.304C5.28555 13.9591 4.83279 13.7612 4.35747 13.7555Z" fill="#1177D8"/>
</svg>
