<svg width="22" height="22" viewBox="0 0 22 22" fill="none" xmlns="http://www.w3.org/2000/svg">
<g clip-path="url(#clip0_63_658)">
<path d="M21.1183 8.96673L21.12 2.42C21.12 1.57094 20.4291 0.880005 19.58 0.880005L13.035 0.881725L12.7583 0.880005C12.1877 0.880005 11.6445 0.912662 11.2527 1.30453L1.25297 11.3042C1.01235 11.5431 0.88 11.8628 0.88 12.2031C0.88 12.5434 1.01234 12.8631 1.25297 13.102L8.89797 20.747C9.13688 20.9877 9.45656 21.12 9.79688 21.12C10.1355 21.12 10.4569 20.9877 10.6958 20.747L20.6955 10.7473C21.1252 10.3194 21.1217 9.70235 21.12 9.10766L21.1183 8.96673ZM17.16 6.16C16.4313 6.16 15.84 5.56875 15.84 4.84C15.84 4.11125 16.4313 3.52 17.16 3.52C17.8888 3.52 18.48 4.11125 18.48 4.84C18.48 5.56875 17.8888 6.16 17.16 6.16Z" fill="#1177D8"/>
</g>
<defs>
<clipPath id="clip0_63_658">
<rect width="22" height="22" fill="white"/>
</clipPath>
</defs>
</svg>
