<svg width="22" height="23" viewBox="0 0 22 23" fill="none" xmlns="http://www.w3.org/2000/svg">
<path d="M16.9668 0.000682068C15.2945 0.0333374 13.2647 1.07657 12.3195 2.02184C11.1181 3.2232 11.0133 4.87313 12.017 6.58664L10.4495 8.15408L11.0133 8.70405C11.3089 8.45656 11.6904 8.31907 12.0995 8.31907C12.5549 8.31907 12.9915 8.48406 13.2957 8.78655L13.5982 9.10279C13.9986 9.50324 14.1705 10.0687 14.0656 10.6152L14.3681 10.9315C14.4231 10.9315 14.4781 10.9418 14.5331 10.9452L15.4681 10.0102C16.2552 10.433 17.0132 10.6427 17.7092 10.6427C18.5668 10.6427 19.3385 10.3196 19.9779 9.68026C21.1603 8.49781 22.4476 5.74106 21.8478 3.94676C21.7997 3.80239 21.6811 3.6924 21.5316 3.65802C21.382 3.62193 21.2274 3.67349 21.1191 3.78177L18.7817 6.10542C18.639 6.24807 18.3709 6.23947 18.218 6.10542L15.8806 3.78177C15.7379 3.63912 15.7465 3.37272 15.8806 3.21804L18.218 0.880644C18.3245 0.774085 18.3761 0.615969 18.3417 0.468162C18.3073 0.320355 18.1956 0.201766 18.053 0.151925C17.723 0.038494 17.3535 -0.00619043 16.9668 0.000682068ZM1.09995 0.0419303L0 1.14188L1.84242 4.35924L3.03862 4.1805L9.89957 11.0415L9.37709 11.5639C9.07288 11.8681 9.07288 12.4147 9.37709 12.7189L9.67958 13.0214C9.89613 13.2362 10.2605 13.3084 10.5458 13.2001L10.8208 13.1039L11.7832 14.0663L11.7557 14.2726C11.7059 14.74 11.8898 15.2316 12.237 15.5788L18.0117 21.3672C18.4586 21.8141 19.0446 22.0547 19.6616 22.0547C20.2786 22.0547 20.8733 21.8055 21.3253 21.3535C22.207 20.4306 22.2139 18.9559 21.3253 18.0674L15.5368 12.2789C15.2086 11.9506 14.7376 11.777 14.2306 11.8114L14.0244 11.8252L13.0619 10.8627L13.1582 10.5877C13.275 10.287 13.2063 9.94838 12.9794 9.72151L12.6769 9.41902C12.3985 9.1406 11.8004 9.1406 11.522 9.41902L10.9995 9.9415L4.13857 3.08055L4.31731 1.88435L1.09995 0.0419303ZM8.11215 10.4915L5.44476 13.1589C5.14056 13.0987 4.84151 13.0626 4.5373 13.0626C2.06241 13.0626 0.0412482 15.0838 0.0412482 17.5587C0.0412482 20.0336 2.06241 22.041 4.5373 22.041C7.01219 22.041 9.01961 20.0336 9.01961 17.5587C9.01961 17.1857 8.98867 16.8626 8.90961 16.5687L10.8758 14.6025C10.8706 14.5355 10.8603 14.4633 10.862 14.3963L10.5733 14.1076C10.0353 14.209 9.44756 14.0268 9.06086 13.6401L8.74462 13.3376C8.12933 12.7223 8.10871 11.71 8.66212 11.0552L8.11215 10.4915ZM13.9556 13.3651L19.2354 18.6449L18.6029 19.2773L13.3232 13.9976L13.9556 13.3651ZM5.05978 15.4413L6.59971 16.9812L6.07724 19.0436L3.95983 19.6211L2.41989 18.0811L2.99737 16.0187L5.05978 15.4413Z" fill="#1177D8"/>
</svg>
