<svg width="22" height="22" viewBox="0 0 22 22" fill="none" xmlns="http://www.w3.org/2000/svg">
<path d="M11.46 0C9.68725 0 8.25117 1.43608 8.25117 3.20879C8.25117 5.95023 14.2104 10.0848 14.2104 10.0848C14.2104 10.0848 20.1695 5.92874 20.1695 3.20879C20.1695 1.43608 18.7335 0 16.9607 0C15.7915 0 14.7708 0.626718 14.2104 1.56142C13.6499 0.626718 12.6292 0 11.46 0ZM20.6423 11.4743C20.311 11.4958 19.9887 11.6408 19.7398 11.8897L15.1271 16.5023H10.5432L9.62637 15.5855L13.1503 14.8836C13.6642 14.7816 14.0868 14.3966 14.1817 13.8809C14.3285 13.0805 13.7233 12.3768 12.9498 12.3768H6.56083C5.58852 12.3768 4.65561 12.7635 3.96801 13.4511L0 17.4191L4.12559 21.5447L5.68701 19.9833C5.8589 19.8114 6.0881 19.7111 6.33163 19.7111H14.8263C15.3134 19.7111 15.7718 19.5106 16.1156 19.1668L21.6163 13.666C22.1392 13.1431 22.1303 12.2908 21.5734 11.7894C21.3119 11.5549 20.9735 11.4528 20.6423 11.4743Z" fill="#1177D8"/>
</svg>
