<svg width="22" height="22" viewBox="0 0 22 22" fill="none" xmlns="http://www.w3.org/2000/svg">
<g clip-path="url(#clip0_63_663)">
<path d="M11 3.66663C9.22809 3.66663 7.79167 5.10304 7.79167 6.87496C7.79167 8.64688 9.22809 10.0833 11 10.0833C12.7719 10.0833 14.2083 8.64688 14.2083 6.87496C14.2083 5.10304 12.7719 3.66663 11 3.66663ZM4.125 6.41663C2.85935 6.41663 1.83333 7.44264 1.83333 8.70829C1.83333 9.97394 2.85935 11 4.125 11C5.39065 11 6.41667 9.97394 6.41667 8.70829C6.41667 7.44264 5.39065 6.41663 4.125 6.41663ZM17.875 6.41663C16.6094 6.41663 15.5833 7.44264 15.5833 8.70829C15.5833 9.97394 16.6094 11 17.875 11C19.1407 11 20.1667 9.97394 20.1667 8.70829C20.1667 7.44264 19.1407 6.41663 17.875 6.41663ZM11 11.9166C8.85867 11.9166 4.58333 12.9919 4.58333 15.125V17.4166C4.58333 17.9226 4.994 18.3333 5.5 18.3333H16.5C17.006 18.3333 17.4167 17.9226 17.4167 17.4166V15.125C17.4167 12.9919 13.1413 11.9166 11 11.9166ZM3.57357 12.8816C2.12432 13.1053 0 14.1066 0 15.3129V17.4166C0 17.9226 0.410667 18.3333 0.916667 18.3333H2.75V15.125C2.75 14.244 3.06665 13.505 3.57357 12.8816ZM18.4264 12.8816C18.9334 13.505 19.25 14.244 19.25 15.125V18.3333H21.0833C21.5893 18.3333 22 17.9226 22 17.4166V15.313C22 14.1066 19.8757 13.1053 18.4264 12.8816Z" fill="#1177D8"/>
</g>
<defs>
<clipPath id="clip0_63_663">
<rect width="22" height="22" fill="white"/>
</clipPath>
</defs>
</svg>
